<svg width="12" height="14" viewBox="0 0 12 14" fill="none" xmlns="http://www.w3.org/2000/svg">
<path d="M9.55742 2.47357C8.60722 1.52331 7.34384 1 6.00005 1C4.65626 1 3.39288 1.52331 2.4426 2.47354C1.4924 3.42375 0.969086 4.6871 0.969086 6.03089C0.969086 7.37466 1.4924 8.63804 2.4426 9.58829L5.75147 12.897C5.82012 12.9657 5.9101 13 6.00005 13C6.09003 13 6.18 12.9657 6.24865 12.897L9.55733 9.58829C10.5075 8.63806 11.0308 7.37468 11.0309 6.03087C11.0309 4.68708 10.5076 3.42372 9.55742 2.47357ZM9.06015 9.09111L6.00003 12.1513L2.93978 9.09111C1.2524 7.40368 1.2524 4.65809 2.93976 2.97075C3.75724 2.15331 4.84409 1.70313 6.00005 1.70313C7.15601 1.70313 8.24279 2.15331 9.06022 2.97075C10.7476 4.65809 10.7476 7.40368 9.06015 9.09111Z" fill="#5533EA" stroke="#5533EA" stroke-width="0.3"/>
<path d="M7.58003 4.45095C7.15799 4.02893 6.59689 3.79652 6.00006 3.79652C5.40324 3.79652 4.84213 4.02893 4.42013 4.45095C3.99809 4.87296 3.76569 5.43408 3.76569 6.03092C3.76569 6.62773 3.99812 7.18885 4.42013 7.61087C4.84213 8.03289 5.40322 8.26529 6.00006 8.26529C6.59689 8.26529 7.15801 8.03289 7.58003 7.61085C8.00204 7.18883 8.23448 6.62774 8.23448 6.0309C8.23448 5.43406 8.00207 4.87296 7.58003 4.45095ZM7.08282 7.11364C6.79361 7.40286 6.40907 7.56214 6.00003 7.56214C5.59103 7.56214 5.20651 7.40286 4.91729 7.11367C4.62807 6.82445 4.46879 6.43993 4.46879 6.03092C4.46879 5.62191 4.62807 5.23737 4.91729 4.94813C5.20649 4.65893 5.59103 4.49965 6.00003 4.49965C6.40907 4.49965 6.79358 4.65893 7.0828 4.94813C7.37202 5.23732 7.5313 5.62186 7.5313 6.03087C7.53133 6.43991 7.37207 6.82442 7.08282 7.11364Z" fill="#5533EA" stroke="#5533EA" stroke-width="0.3"/>
</svg>
